<mxfile host="65bd71144e">
    <diagram id="cYhhFKjglzjXO6Q1z3eT" name="Page-1">
        <mxGraphModel dx="2290" dy="1758" grid="0" gridSize="10" guides="1" tooltips="1" connect="1" arrows="1" fold="1" page="1" pageScale="1" pageWidth="850" pageHeight="1100" background="#ffffff" math="0" shadow="0">
            <root>
                <mxCell id="0"/>
                <mxCell id="1" parent="0"/>
                <mxCell id="5" value="" style="edgeStyle=none;html=1;endArrow=none;endFill=0;" parent="1" source="2" target="4" edge="1">
                    <mxGeometry relative="1" as="geometry"/>
                </mxCell>
                <mxCell id="32" style="edgeStyle=none;html=1;endArrow=none;endFill=0;" parent="1" source="2" target="31" edge="1">
                    <mxGeometry relative="1" as="geometry"/>
                </mxCell>
                <mxCell id="38" style="edgeStyle=none;html=1;endArrow=none;endFill=0;" parent="1" source="2" target="37" edge="1">
                    <mxGeometry relative="1" as="geometry"/>
                </mxCell>
                <mxCell id="54" style="edgeStyle=none;html=1;strokeWidth=1;endArrow=none;endFill=0;" parent="1" source="2" target="52" edge="1">
                    <mxGeometry relative="1" as="geometry"/>
                </mxCell>
                <mxCell id="68" value="" style="edgeStyle=none;html=1;endArrow=none;endFill=0;" parent="1" source="2" target="67" edge="1">
                    <mxGeometry relative="1" as="geometry"/>
                </mxCell>
                <mxCell id="81" value="" style="edgeStyle=none;html=1;startArrow=none;startFill=0;endArrow=none;endFill=0;" parent="1" source="2" target="67" edge="1">
                    <mxGeometry relative="1" as="geometry"/>
                </mxCell>
                <mxCell id="83" style="edgeStyle=none;html=1;startArrow=none;startFill=0;endArrow=none;endFill=0;" parent="1" source="2" target="82" edge="1">
                    <mxGeometry relative="1" as="geometry"/>
                </mxCell>
                <mxCell id="145" style="edgeStyle=none;html=1;strokeWidth=1;endArrow=none;endFill=0;" edge="1" parent="1" source="2" target="144">
                    <mxGeometry relative="1" as="geometry"/>
                </mxCell>
                <mxCell id="2" value="Member" style="rounded=0;whiteSpace=wrap;html=1;" parent="1" vertex="1">
                    <mxGeometry x="205" y="190" width="120" height="60" as="geometry"/>
                </mxCell>
                <mxCell id="4" value="&lt;u&gt;mem_id&lt;/u&gt;" style="ellipse;whiteSpace=wrap;html=1;rounded=0;" parent="1" vertex="1">
                    <mxGeometry x="95" y="230" width="70" height="40" as="geometry"/>
                </mxCell>
                <mxCell id="10" value="" style="edgeStyle=none;html=1;endArrow=none;endFill=0;" parent="1" source="8" target="2" edge="1">
                    <mxGeometry relative="1" as="geometry"/>
                </mxCell>
                <mxCell id="8" value="first_name" style="ellipse;whiteSpace=wrap;html=1;rounded=0;" parent="1" vertex="1">
                    <mxGeometry x="110" y="170" width="70" height="40" as="geometry"/>
                </mxCell>
                <mxCell id="11" style="edgeStyle=none;html=1;endArrow=none;endFill=0;" parent="1" source="9" target="2" edge="1">
                    <mxGeometry relative="1" as="geometry"/>
                </mxCell>
                <mxCell id="9" value="last_name" style="ellipse;whiteSpace=wrap;html=1;rounded=0;" parent="1" vertex="1">
                    <mxGeometry x="270.25" y="124" width="70" height="40" as="geometry"/>
                </mxCell>
                <mxCell id="12" value="" style="edgeStyle=none;html=1;endArrow=none;endFill=0;" parent="1" source="13" target="14" edge="1">
                    <mxGeometry relative="1" as="geometry"/>
                </mxCell>
                <mxCell id="33" style="edgeStyle=none;html=1;endArrow=none;endFill=0;" parent="1" source="13" target="141" edge="1">
                    <mxGeometry relative="1" as="geometry"/>
                </mxCell>
                <mxCell id="13" value="School" style="rounded=0;whiteSpace=wrap;html=1;" parent="1" vertex="1">
                    <mxGeometry x="570" y="190" width="120" height="60" as="geometry"/>
                </mxCell>
                <mxCell id="14" value="&lt;u&gt;school_id&lt;/u&gt;" style="ellipse;whiteSpace=wrap;html=1;rounded=0;" parent="1" vertex="1">
                    <mxGeometry x="525" y="110" width="70" height="40" as="geometry"/>
                </mxCell>
                <mxCell id="15" value="" style="edgeStyle=none;html=1;endArrow=none;endFill=0;" parent="1" source="16" target="13" edge="1">
                    <mxGeometry relative="1" as="geometry"/>
                </mxCell>
                <mxCell id="16" value="name" style="ellipse;whiteSpace=wrap;html=1;rounded=0;" parent="1" vertex="1">
                    <mxGeometry x="620" y="110" width="70" height="40" as="geometry"/>
                </mxCell>
                <mxCell id="17" style="edgeStyle=none;html=1;endArrow=none;endFill=0;" parent="1" source="18" target="13" edge="1">
                    <mxGeometry relative="1" as="geometry"/>
                </mxCell>
                <mxCell id="18" value="city" style="ellipse;whiteSpace=wrap;html=1;rounded=0;" parent="1" vertex="1">
                    <mxGeometry x="715" y="110" width="70" height="40" as="geometry"/>
                </mxCell>
                <mxCell id="19" style="edgeStyle=none;html=1;endArrow=none;endFill=0;entryX=1;entryY=0.25;entryDx=0;entryDy=0;" parent="1" source="20" target="13" edge="1">
                    <mxGeometry relative="1" as="geometry">
                        <mxPoint x="689.9966666666668" y="230" as="targetPoint"/>
                    </mxGeometry>
                </mxCell>
                <mxCell id="20" value="state" style="ellipse;whiteSpace=wrap;html=1;rounded=0;" parent="1" vertex="1">
                    <mxGeometry x="738.33" y="160" width="70" height="40" as="geometry"/>
                </mxCell>
                <mxCell id="34" style="edgeStyle=none;html=1;endArrow=none;endFill=0;" parent="1" source="25" target="31" edge="1">
                    <mxGeometry relative="1" as="geometry"/>
                </mxCell>
                <mxCell id="142" style="edgeStyle=none;html=1;strokeWidth=4;" edge="1" parent="1" source="25" target="141">
                    <mxGeometry relative="1" as="geometry"/>
                </mxCell>
                <mxCell id="25" value="Course" style="rounded=0;whiteSpace=wrap;html=1;strokeWidth=4;" parent="1" vertex="1">
                    <mxGeometry x="405" y="360" width="120" height="60" as="geometry"/>
                </mxCell>
                <mxCell id="27" value="" style="edgeStyle=none;html=1;endArrow=none;endFill=0;" parent="1" source="28" target="25" edge="1">
                    <mxGeometry relative="1" as="geometry"/>
                </mxCell>
                <mxCell id="28" value="name" style="ellipse;whiteSpace=wrap;html=1;rounded=0;" parent="1" vertex="1">
                    <mxGeometry x="370" y="440" width="70" height="40" as="geometry"/>
                </mxCell>
                <mxCell id="29" style="edgeStyle=none;html=1;endArrow=none;endFill=0;" parent="1" source="30" target="25" edge="1">
                    <mxGeometry relative="1" as="geometry"/>
                </mxCell>
                <mxCell id="30" value="code" style="ellipse;whiteSpace=wrap;html=1;rounded=0;" parent="1" vertex="1">
                    <mxGeometry x="470" y="440" width="70" height="40" as="geometry"/>
                </mxCell>
                <mxCell id="36" style="edgeStyle=none;html=1;endArrow=none;endFill=0;" parent="1" source="31" target="35" edge="1">
                    <mxGeometry relative="1" as="geometry"/>
                </mxCell>
                <mxCell id="31" value="takes" style="rhombus;whiteSpace=wrap;html=1;" parent="1" vertex="1">
                    <mxGeometry x="425" y="260" width="80" height="60" as="geometry"/>
                </mxCell>
                <mxCell id="35" value="grade" style="ellipse;whiteSpace=wrap;html=1;" parent="1" vertex="1">
                    <mxGeometry x="520" y="290" width="60" height="40" as="geometry"/>
                </mxCell>
                <mxCell id="39" style="edgeStyle=none;html=1;endArrow=none;endFill=0;" parent="1" source="37" target="13" edge="1">
                    <mxGeometry relative="1" as="geometry"/>
                </mxCell>
                <mxCell id="37" value="graduates" style="rhombus;whiteSpace=wrap;html=1;" parent="1" vertex="1">
                    <mxGeometry x="420" y="140" width="80" height="60" as="geometry"/>
                </mxCell>
                <mxCell id="41" style="edgeStyle=none;html=1;endArrow=none;endFill=0;" parent="1" source="40" target="37" edge="1">
                    <mxGeometry relative="1" as="geometry"/>
                </mxCell>
                <mxCell id="40" value="degree" style="ellipse;whiteSpace=wrap;html=1;" parent="1" vertex="1">
                    <mxGeometry x="370" y="200" width="60" height="30" as="geometry"/>
                </mxCell>
                <mxCell id="42" style="edgeStyle=none;html=1;endArrow=none;endFill=0;" parent="1" source="46" target="37" edge="1">
                    <mxGeometry relative="1" as="geometry">
                        <mxPoint x="450.4216867469879" y="218.433734939759" as="targetPoint"/>
                        <mxPoint x="462.90536135991465" y="179.99837031684405" as="sourcePoint"/>
                    </mxGeometry>
                </mxCell>
                <mxCell id="44" style="edgeStyle=none;html=1;endArrow=none;endFill=0;" parent="1" source="45" target="37" edge="1">
                    <mxGeometry relative="1" as="geometry">
                        <mxPoint x="505.0016867469879" y="150.003734939759" as="targetPoint"/>
                    </mxGeometry>
                </mxCell>
                <mxCell id="45" value="gpa" style="ellipse;whiteSpace=wrap;html=1;" parent="1" vertex="1">
                    <mxGeometry x="480" y="200" width="60" height="30" as="geometry"/>
                </mxCell>
                <mxCell id="46" value="major" style="rounded=0;whiteSpace=wrap;html=1;" parent="1" vertex="1">
                    <mxGeometry x="400" y="50" width="120" height="60" as="geometry"/>
                </mxCell>
                <mxCell id="47" value="" style="edgeStyle=none;html=1;endArrow=none;endFill=0;" parent="1" source="46" target="48" edge="1">
                    <mxGeometry relative="1" as="geometry">
                        <mxPoint x="446.67726719748975" y="70" as="sourcePoint"/>
                    </mxGeometry>
                </mxCell>
                <mxCell id="48" value="&lt;u&gt;major_id&lt;/u&gt;" style="ellipse;whiteSpace=wrap;html=1;rounded=0;" parent="1" vertex="1">
                    <mxGeometry x="365" y="-10" width="70" height="40" as="geometry"/>
                </mxCell>
                <mxCell id="49" value="" style="edgeStyle=none;html=1;endArrow=none;endFill=0;" parent="1" source="50" target="46" edge="1">
                    <mxGeometry relative="1" as="geometry">
                        <mxPoint x="498.33333333333326" y="70" as="targetPoint"/>
                    </mxGeometry>
                </mxCell>
                <mxCell id="50" value="name" style="ellipse;whiteSpace=wrap;html=1;rounded=0;" parent="1" vertex="1">
                    <mxGeometry x="480" y="-10" width="70" height="40" as="geometry"/>
                </mxCell>
                <mxCell id="53" style="edgeStyle=none;html=1;endArrow=block;endFill=1;strokeWidth=4;" parent="1" source="51" target="52" edge="1">
                    <mxGeometry relative="1" as="geometry"/>
                </mxCell>
                <mxCell id="51" value="Personal_URL" style="rounded=0;whiteSpace=wrap;html=1;" parent="1" vertex="1">
                    <mxGeometry x="15" y="90" width="120" height="60" as="geometry"/>
                </mxCell>
                <mxCell id="52" value="has" style="rhombus;whiteSpace=wrap;html=1;" parent="1" vertex="1">
                    <mxGeometry x="172.5" y="110" width="67.5" height="50" as="geometry"/>
                </mxCell>
                <mxCell id="55" value="" style="edgeStyle=none;html=1;endArrow=none;endFill=0;" parent="1" source="51" target="56" edge="1">
                    <mxGeometry relative="1" as="geometry">
                        <mxPoint x="130" y="390" as="sourcePoint"/>
                    </mxGeometry>
                </mxCell>
                <mxCell id="56" value="&lt;u&gt;u_id&lt;br&gt;&lt;/u&gt;" style="ellipse;whiteSpace=wrap;html=1;rounded=0;" parent="1" vertex="1">
                    <mxGeometry y="30" width="70" height="40" as="geometry"/>
                </mxCell>
                <mxCell id="57" value="" style="edgeStyle=none;html=1;endArrow=none;endFill=0;" parent="1" source="58" target="51" edge="1">
                    <mxGeometry relative="1" as="geometry">
                        <mxPoint x="160" y="390" as="targetPoint"/>
                    </mxGeometry>
                </mxCell>
                <mxCell id="58" value="url" style="ellipse;whiteSpace=wrap;html=1;rounded=0;" parent="1" vertex="1">
                    <mxGeometry x="16.25" y="170" width="70" height="40" as="geometry"/>
                </mxCell>
                <mxCell id="59" value="Project" style="rounded=0;whiteSpace=wrap;html=1;" parent="1" vertex="1">
                    <mxGeometry x="15" y="360" width="120" height="60" as="geometry"/>
                </mxCell>
                <mxCell id="60" value="" style="edgeStyle=none;html=1;endArrow=none;endFill=0;" parent="1" source="59" target="61" edge="1">
                    <mxGeometry relative="1" as="geometry">
                        <mxPoint x="-60" y="390" as="sourcePoint"/>
                    </mxGeometry>
                </mxCell>
                <mxCell id="61" value="&lt;u&gt;p_id&lt;br&gt;&lt;/u&gt;" style="ellipse;whiteSpace=wrap;html=1;rounded=0;" parent="1" vertex="1">
                    <mxGeometry x="-80" y="350" width="70" height="40" as="geometry"/>
                </mxCell>
                <mxCell id="62" value="" style="edgeStyle=none;html=1;endArrow=none;endFill=0;" parent="1" source="63" target="59" edge="1">
                    <mxGeometry relative="1" as="geometry">
                        <mxPoint x="-30" y="390" as="targetPoint"/>
                    </mxGeometry>
                </mxCell>
                <mxCell id="63" value="name" style="ellipse;whiteSpace=wrap;html=1;rounded=0;" parent="1" vertex="1">
                    <mxGeometry x="-80" y="410" width="70" height="40" as="geometry"/>
                </mxCell>
                <mxCell id="64" value="" style="edgeStyle=none;html=1;endArrow=none;endFill=0;" parent="1" source="65" target="59" edge="1">
                    <mxGeometry relative="1" as="geometry">
                        <mxPoint x="95" y="450" as="targetPoint"/>
                    </mxGeometry>
                </mxCell>
                <mxCell id="65" value="repository" style="ellipse;whiteSpace=wrap;html=1;rounded=0;" parent="1" vertex="1">
                    <mxGeometry y="450" width="70" height="40" as="geometry"/>
                </mxCell>
                <mxCell id="69" style="edgeStyle=none;html=1;startArrow=none;startFill=0;endArrow=none;endFill=0;strokeWidth=4;" parent="1" source="67" target="59" edge="1">
                    <mxGeometry relative="1" as="geometry"/>
                </mxCell>
                <mxCell id="67" value="owns" style="rhombus;whiteSpace=wrap;html=1;rounded=0;" parent="1" vertex="1">
                    <mxGeometry x="130" y="280" width="80" height="60" as="geometry"/>
                </mxCell>
                <mxCell id="80" value="" style="edgeStyle=none;html=1;startArrow=none;startFill=0;endArrow=none;endFill=0;" parent="1" source="70" target="79" edge="1">
                    <mxGeometry relative="1" as="geometry"/>
                </mxCell>
                <mxCell id="84" style="edgeStyle=none;html=1;startArrow=none;startFill=0;endArrow=none;endFill=0;" parent="1" source="70" target="82" edge="1">
                    <mxGeometry relative="1" as="geometry"/>
                </mxCell>
                <mxCell id="70" value="Employer" style="rounded=0;whiteSpace=wrap;html=1;" parent="1" vertex="1">
                    <mxGeometry x="573.33" y="500" width="120" height="60" as="geometry"/>
                </mxCell>
                <mxCell id="71" value="" style="edgeStyle=none;html=1;endArrow=none;endFill=0;" parent="1" source="70" target="72" edge="1">
                    <mxGeometry relative="1" as="geometry">
                        <mxPoint x="498.33000000000004" y="530" as="sourcePoint"/>
                    </mxGeometry>
                </mxCell>
                <mxCell id="72" value="&lt;u&gt;emp_id&lt;br&gt;&lt;/u&gt;" style="ellipse;whiteSpace=wrap;html=1;rounded=0;" parent="1" vertex="1">
                    <mxGeometry x="520" y="580" width="70" height="40" as="geometry"/>
                </mxCell>
                <mxCell id="73" value="" style="edgeStyle=none;html=1;endArrow=none;endFill=0;" parent="1" source="74" target="70" edge="1">
                    <mxGeometry relative="1" as="geometry">
                        <mxPoint x="528.33" y="530" as="targetPoint"/>
                    </mxGeometry>
                </mxCell>
                <mxCell id="74" value="name" style="ellipse;whiteSpace=wrap;html=1;rounded=0;" parent="1" vertex="1">
                    <mxGeometry x="645" y="580" width="70" height="40" as="geometry"/>
                </mxCell>
                <mxCell id="75" value="" style="edgeStyle=none;html=1;endArrow=none;endFill=0;" parent="1" source="76" target="70" edge="1">
                    <mxGeometry relative="1" as="geometry">
                        <mxPoint x="653.33" y="590" as="targetPoint"/>
                    </mxGeometry>
                </mxCell>
                <mxCell id="76" value="city" style="ellipse;whiteSpace=wrap;html=1;rounded=0;" parent="1" vertex="1">
                    <mxGeometry x="598.33" y="430" width="70" height="40" as="geometry"/>
                </mxCell>
                <mxCell id="79" value="state" style="ellipse;whiteSpace=wrap;html=1;rounded=0;" parent="1" vertex="1">
                    <mxGeometry x="700" y="440" width="65" height="40" as="geometry"/>
                </mxCell>
                <mxCell id="82" value="works" style="rhombus;whiteSpace=wrap;html=1;" parent="1" vertex="1">
                    <mxGeometry x="225.00000000000006" y="500" width="80" height="60" as="geometry"/>
                </mxCell>
                <mxCell id="85" value="" style="edgeStyle=none;html=1;endArrow=none;endFill=0;" parent="1" source="86" target="82" edge="1">
                    <mxGeometry relative="1" as="geometry">
                        <mxPoint x="788.33" y="580" as="targetPoint"/>
                    </mxGeometry>
                </mxCell>
                <mxCell id="86" value="from" style="ellipse;whiteSpace=wrap;html=1;rounded=0;" parent="1" vertex="1">
                    <mxGeometry x="172.5" y="550" width="55" height="30" as="geometry"/>
                </mxCell>
                <mxCell id="87" value="" style="edgeStyle=none;html=1;endArrow=none;endFill=0;" parent="1" source="88" target="82" edge="1">
                    <mxGeometry relative="1" as="geometry">
                        <mxPoint x="728.33" y="675" as="targetPoint"/>
                    </mxGeometry>
                </mxCell>
                <mxCell id="88" value="to" style="ellipse;whiteSpace=wrap;html=1;rounded=0;" parent="1" vertex="1">
                    <mxGeometry x="300.00000000000006" y="550" width="50" height="30" as="geometry"/>
                </mxCell>
                <mxCell id="95" value="" style="edgeStyle=none;html=1;strokeWidth=4;startArrow=none;startFill=0;endArrow=block;endFill=1;" parent="1" source="89" target="94" edge="1">
                    <mxGeometry relative="1" as="geometry"/>
                </mxCell>
                <mxCell id="102" value="" style="edgeStyle=none;html=1;strokeWidth=1;startArrow=none;startFill=0;endArrow=none;endFill=0;" parent="1" source="89" target="101" edge="1">
                    <mxGeometry relative="1" as="geometry"/>
                </mxCell>
                <mxCell id="89" value="Content" style="rounded=0;whiteSpace=wrap;html=1;strokeWidth=1;" parent="1" vertex="1">
                    <mxGeometry x="205" y="-40" width="120" height="60" as="geometry"/>
                </mxCell>
                <mxCell id="93" style="edgeStyle=none;html=1;strokeWidth=1;endArrow=none;endFill=0;" parent="1" source="2" target="94" edge="1">
                    <mxGeometry relative="1" as="geometry">
                        <mxPoint x="270.88" y="190" as="sourcePoint"/>
                    </mxGeometry>
                </mxCell>
                <mxCell id="94" value="posts" style="rhombus;whiteSpace=wrap;html=1;" parent="1" vertex="1">
                    <mxGeometry x="232.5" y="60" width="67.5" height="50" as="geometry"/>
                </mxCell>
                <mxCell id="98" style="edgeStyle=none;html=1;strokeWidth=1;startArrow=none;startFill=0;endArrow=none;endFill=0;" parent="1" source="96" target="89" edge="1">
                    <mxGeometry relative="1" as="geometry"/>
                </mxCell>
                <mxCell id="96" value="&lt;u&gt;content_id&lt;/u&gt;" style="ellipse;whiteSpace=wrap;html=1;rounded=0;" parent="1" vertex="1">
                    <mxGeometry x="100" y="10" width="70" height="40" as="geometry"/>
                </mxCell>
                <mxCell id="99" style="edgeStyle=none;html=1;strokeWidth=1;startArrow=none;startFill=0;endArrow=none;endFill=0;" parent="1" source="97" target="89" edge="1">
                    <mxGeometry relative="1" as="geometry"/>
                </mxCell>
                <mxCell id="97" value="created date" style="ellipse;whiteSpace=wrap;html=1;rounded=0;" parent="1" vertex="1">
                    <mxGeometry x="90" y="-60" width="80" height="40" as="geometry"/>
                </mxCell>
                <mxCell id="101" value="O" style="ellipse;whiteSpace=wrap;html=1;rounded=0;strokeWidth=1;" parent="1" vertex="1">
                    <mxGeometry x="253.75" y="-90" width="22.5" height="20" as="geometry"/>
                </mxCell>
                <mxCell id="107" style="edgeStyle=none;html=1;strokeWidth=1;startArrow=none;startFill=0;endArrow=none;endFill=0;" parent="1" source="104" target="101" edge="1">
                    <mxGeometry relative="1" as="geometry"/>
                </mxCell>
                <mxCell id="104" value="Text" style="rounded=0;whiteSpace=wrap;html=1;" parent="1" vertex="1">
                    <mxGeometry x="350" y="-180" width="70" height="40" as="geometry"/>
                </mxCell>
                <mxCell id="108" style="edgeStyle=none;html=1;strokeWidth=1;startArrow=none;startFill=0;endArrow=none;endFill=0;" parent="1" source="109" target="101" edge="1">
                    <mxGeometry relative="1" as="geometry">
                        <mxPoint x="341" y="-86" as="targetPoint"/>
                    </mxGeometry>
                </mxCell>
                <mxCell id="109" value="Short_Video" style="rounded=0;whiteSpace=wrap;html=1;" parent="1" vertex="1">
                    <mxGeometry x="231" y="-180" width="70" height="40" as="geometry"/>
                </mxCell>
                <mxCell id="110" style="edgeStyle=none;html=1;strokeWidth=1;startArrow=none;startFill=0;endArrow=none;endFill=0;" parent="1" source="111" target="101" edge="1">
                    <mxGeometry relative="1" as="geometry">
                        <mxPoint x="435" y="-86" as="targetPoint"/>
                    </mxGeometry>
                </mxCell>
                <mxCell id="111" value="Photo" style="rounded=0;whiteSpace=wrap;html=1;" parent="1" vertex="1">
                    <mxGeometry x="120" y="-180" width="70" height="40" as="geometry"/>
                </mxCell>
                <mxCell id="114" value="" style="edgeStyle=none;html=1;strokeWidth=1;startArrow=none;startFill=0;endArrow=none;endFill=0;" parent="1" source="112" target="111" edge="1">
                    <mxGeometry relative="1" as="geometry"/>
                </mxCell>
                <mxCell id="112" value="&lt;u&gt;photo_id&lt;/u&gt;" style="ellipse;whiteSpace=wrap;html=1;rounded=0;" parent="1" vertex="1">
                    <mxGeometry x="40" y="-120" width="70" height="40" as="geometry"/>
                </mxCell>
                <mxCell id="115" style="edgeStyle=none;html=1;strokeWidth=1;startArrow=none;startFill=0;endArrow=none;endFill=0;" parent="1" source="113" target="111" edge="1">
                    <mxGeometry relative="1" as="geometry"/>
                </mxCell>
                <mxCell id="113" value="source" style="ellipse;whiteSpace=wrap;html=1;rounded=0;" parent="1" vertex="1">
                    <mxGeometry x="140" y="-120" width="70" height="40" as="geometry"/>
                </mxCell>
                <mxCell id="116" value="" style="edgeStyle=none;html=1;strokeWidth=1;startArrow=none;startFill=0;endArrow=none;endFill=0;shape=link;" parent="1" source="111" target="117" edge="1">
                    <mxGeometry relative="1" as="geometry">
                        <mxPoint x="186.25000000000023" y="-130.00000000000023" as="sourcePoint"/>
                    </mxGeometry>
                </mxCell>
                <mxCell id="120" style="edgeStyle=none;html=1;strokeWidth=1;startArrow=none;startFill=0;endArrow=none;endFill=0;" parent="1" source="117" target="118" edge="1">
                    <mxGeometry relative="1" as="geometry"/>
                </mxCell>
                <mxCell id="121" style="edgeStyle=none;html=1;strokeWidth=1;startArrow=none;startFill=0;endArrow=none;endFill=0;" parent="1" source="117" target="119" edge="1">
                    <mxGeometry relative="1" as="geometry"/>
                </mxCell>
                <mxCell id="117" value="d" style="ellipse;whiteSpace=wrap;html=1;rounded=0;strokeWidth=1;" parent="1" vertex="1">
                    <mxGeometry x="63.75" y="-170" width="22.5" height="20" as="geometry"/>
                </mxCell>
                <mxCell id="118" value="Regular_Photo" style="rounded=0;whiteSpace=wrap;html=1;" parent="1" vertex="1">
                    <mxGeometry x="-70" y="-210" width="100" height="40" as="geometry"/>
                </mxCell>
                <mxCell id="125" value="" style="edgeStyle=none;html=1;strokeWidth=4;startArrow=none;startFill=0;endArrow=block;endFill=1;" parent="1" source="119" target="124" edge="1">
                    <mxGeometry relative="1" as="geometry"/>
                </mxCell>
                <mxCell id="119" value="Account_Photo" style="rounded=0;whiteSpace=wrap;html=1;" parent="1" vertex="1">
                    <mxGeometry x="-70" y="-140" width="100" height="40" as="geometry"/>
                </mxCell>
                <mxCell id="126" value="" style="edgeStyle=none;html=1;strokeWidth=1;startArrow=block;startFill=1;endArrow=none;endFill=0;" parent="1" source="124" target="2" edge="1">
                    <mxGeometry relative="1" as="geometry"/>
                </mxCell>
                <mxCell id="124" value="belongs" style="rhombus;whiteSpace=wrap;html=1;rounded=0;" parent="1" vertex="1">
                    <mxGeometry x="-53.75" y="185" width="70" height="70" as="geometry"/>
                </mxCell>
                <mxCell id="127" style="edgeStyle=none;html=1;endArrow=none;endFill=0;" parent="1" source="128" target="13" edge="1">
                    <mxGeometry relative="1" as="geometry">
                        <mxPoint x="700" y="245" as="targetPoint"/>
                    </mxGeometry>
                </mxCell>
                <mxCell id="128" value="country" style="ellipse;whiteSpace=wrap;html=1;rounded=0;" parent="1" vertex="1">
                    <mxGeometry x="738.33" y="215" width="70" height="40" as="geometry"/>
                </mxCell>
                <mxCell id="129" style="edgeStyle=none;html=1;endArrow=none;endFill=0;" parent="1" source="130" target="70" edge="1">
                    <mxGeometry relative="1" as="geometry">
                        <mxPoint x="700" y="511.27921579571625" as="targetPoint"/>
                    </mxGeometry>
                </mxCell>
                <mxCell id="130" value="country" style="ellipse;whiteSpace=wrap;html=1;rounded=0;" parent="1" vertex="1">
                    <mxGeometry x="730" y="500" width="70" height="40" as="geometry"/>
                </mxCell>
                <mxCell id="131" value="" style="shape=requiredInterface;html=1;verticalLabelPosition=bottom;strokeWidth=1;rotation=-30;" parent="1" vertex="1">
                    <mxGeometry x="314" y="-121" width="10" height="10" as="geometry"/>
                </mxCell>
                <mxCell id="132" value="" style="shape=requiredInterface;html=1;verticalLabelPosition=bottom;strokeWidth=1;rotation=-90;" parent="1" vertex="1">
                    <mxGeometry x="260.25" y="-125" width="10" height="10" as="geometry"/>
                </mxCell>
                <mxCell id="133" value="" style="shape=requiredInterface;html=1;verticalLabelPosition=bottom;strokeWidth=1;rotation=-140;" parent="1" vertex="1">
                    <mxGeometry x="212.5" y="-120" width="10" height="10" as="geometry"/>
                </mxCell>
                <mxCell id="134" value="" style="shape=requiredInterface;html=1;verticalLabelPosition=bottom;strokeWidth=1;rotation=-155;" parent="1" vertex="1">
                    <mxGeometry x="39" y="-175" width="10" height="10" as="geometry"/>
                </mxCell>
                <mxCell id="136" value="" style="shape=requiredInterface;html=1;verticalLabelPosition=bottom;strokeWidth=1;rotation=-210;" parent="1" vertex="1">
                    <mxGeometry x="42" y="-153" width="10" height="10" as="geometry"/>
                </mxCell>
                <mxCell id="137" value="" style="edgeStyle=none;html=1;endArrow=none;endFill=0;" parent="1" source="138" target="2" edge="1">
                    <mxGeometry relative="1" as="geometry">
                        <mxPoint x="378" y="302" as="targetPoint"/>
                    </mxGeometry>
                </mxCell>
                <mxCell id="138" value="email" style="ellipse;whiteSpace=wrap;html=1;rounded=0;" parent="1" vertex="1">
                    <mxGeometry x="274" y="320" width="70" height="40" as="geometry"/>
                </mxCell>
                <mxCell id="139" value="" style="edgeStyle=none;html=1;endArrow=none;endFill=0;" parent="1" source="140" target="2" edge="1">
                    <mxGeometry relative="1" as="geometry">
                        <mxPoint x="445" y="162" as="targetPoint"/>
                    </mxGeometry>
                </mxCell>
                <mxCell id="140" value="password" style="ellipse;whiteSpace=wrap;html=1;rounded=0;" parent="1" vertex="1">
                    <mxGeometry x="350" y="127" width="70" height="40" as="geometry"/>
                </mxCell>
                <mxCell id="141" value="belongs" style="rhombus;whiteSpace=wrap;html=1;strokeWidth=4;" vertex="1" parent="1">
                    <mxGeometry x="595" y="360" width="80" height="60" as="geometry"/>
                </mxCell>
                <mxCell id="143" value="" style="line;strokeWidth=2;html=1;dashed=1;" vertex="1" parent="1">
                    <mxGeometry x="486" y="467" width="40" height="10" as="geometry"/>
                </mxCell>
                <mxCell id="144" value="role" style="ellipse;whiteSpace=wrap;html=1;rounded=0;" vertex="1" parent="1">
                    <mxGeometry x="328" y="274" width="70" height="40" as="geometry"/>
                </mxCell>
                <mxCell id="147" style="edgeStyle=none;html=1;strokeWidth=1;endArrow=none;endFill=0;" edge="1" parent="1" source="146" target="51">
                    <mxGeometry relative="1" as="geometry"/>
                </mxCell>
                <mxCell id="146" value="name" style="ellipse;whiteSpace=wrap;html=1;rounded=0;" vertex="1" parent="1">
                    <mxGeometry x="157.5" y="45" width="70" height="40" as="geometry"/>
                </mxCell>
            </root>
        </mxGraphModel>
    </diagram>
</mxfile>